<?xml version="1.0" encoding="UTF-8"?>
<svg xmlns="http://www.w3.org/2000/svg" version="1.1" width="500" height="500" viewBox="0 0 500 500"><rect x="0" y="0" width="500" height="500" fill="#ffffff" fill-opacity="0.5"/><g transform="scale(13.514)"><g transform="translate(0,0)"><g><g transform="translate(3.5,3.5)"><path fill-rule="evenodd" d="M-3.5 -3.5L3.5 -3.5L3.5 3.5L-3.5 3.5ZM-2.5 -2.5L-2.5 2.5L2.5 2.5L2.5 -2.5Z" fill="#000000"/><path fill-rule="evenodd" d="M-1.5 -1.5L1.5 -1.5L1.5 1.5L-1.5 1.5Z" fill="#000000"/></g></g><g><g transform="translate(33.5,3.5)"><g transform="rotate(90)"><path fill-rule="evenodd" d="M-3.5 -3.5L3.5 -3.5L3.5 3.5L-3.5 3.5ZM-2.5 -2.5L-2.5 2.5L2.5 2.5L2.5 -2.5Z" fill="#000000"/><path fill-rule="evenodd" d="M-1.5 -1.5L1.5 -1.5L1.5 1.5L-1.5 1.5Z" fill="#000000"/></g></g></g><g><g transform="translate(3.5,33.5)"><g transform="rotate(-90)"><path fill-rule="evenodd" d="M-3.5 -3.5L3.5 -3.5L3.5 3.5L-3.5 3.5ZM-2.5 -2.5L-2.5 2.5L2.5 2.5L2.5 -2.5Z" fill="#000000"/><path fill-rule="evenodd" d="M-1.5 -1.5L1.5 -1.5L1.5 1.5L-1.5 1.5Z" fill="#000000"/></g></g></g><path fill-rule="evenodd" d="M9 0L9 1L8 1L8 3L9 3L9 4L8 4L8 8L6 8L6 9L4 9L4 8L3 8L3 9L2 9L2 8L0 8L0 9L2 9L2 10L0 10L0 11L2 11L2 10L3 10L3 9L4 9L4 10L6 10L6 11L3 11L3 12L2 12L2 13L0 13L0 15L2 15L2 16L0 16L0 18L1 18L1 19L0 19L0 23L1 23L1 24L0 24L0 25L1 25L1 26L0 26L0 27L1 27L1 28L0 28L0 29L4 29L4 28L5 28L5 27L7 27L7 28L6 28L6 29L8 29L8 31L9 31L9 33L8 33L8 34L9 34L9 33L11 33L11 34L12 34L12 33L11 33L11 31L12 31L12 32L13 32L13 30L14 30L14 31L18 31L18 30L20 30L20 31L19 31L19 32L20 32L20 33L21 33L21 37L23 37L23 35L24 35L24 37L27 37L27 36L25 36L25 34L26 34L26 35L28 35L28 34L29 34L29 36L30 36L30 33L31 33L31 35L35 35L35 36L34 36L34 37L37 37L37 34L36 34L36 35L35 35L35 34L33 34L33 32L34 32L34 29L37 29L37 28L35 28L35 26L36 26L36 25L37 25L37 24L34 24L34 28L31 28L31 26L30 26L30 28L29 28L29 26L28 26L28 25L27 25L27 24L29 24L29 25L33 25L33 23L34 23L34 22L33 22L33 23L32 23L32 24L31 24L31 20L32 20L32 21L33 21L33 20L34 20L34 17L35 17L35 18L36 18L36 19L35 19L35 20L36 20L36 21L37 21L37 20L36 20L36 19L37 19L37 18L36 18L36 17L37 17L37 16L32 16L32 18L33 18L33 20L32 20L32 19L31 19L31 18L30 18L30 17L31 17L31 14L32 14L32 15L33 15L33 13L34 13L34 15L35 15L35 14L36 14L36 15L37 15L37 14L36 14L36 13L37 13L37 12L35 12L35 13L34 13L34 10L33 10L33 11L32 11L32 13L31 13L31 10L32 10L32 9L33 9L33 8L30 8L30 10L29 10L29 11L28 11L28 12L30 12L30 13L29 13L29 14L28 14L28 13L26 13L26 12L27 12L27 11L26 11L26 12L25 12L25 11L23 11L23 12L22 12L22 10L23 10L23 9L25 9L25 10L28 10L28 9L26 9L26 8L25 8L25 6L24 6L24 8L23 8L23 5L22 5L22 8L21 8L21 9L19 9L19 8L20 8L20 7L21 7L21 4L25 4L25 5L27 5L27 4L29 4L29 3L28 3L28 2L29 2L29 1L28 1L28 2L27 2L27 3L26 3L26 1L27 1L27 0L26 0L26 1L25 1L25 0L24 0L24 1L23 1L23 0L22 0L22 1L23 1L23 2L24 2L24 3L21 3L21 2L20 2L20 1L18 1L18 2L19 2L19 6L18 6L18 5L17 5L17 4L18 4L18 3L17 3L17 2L15 2L15 1L17 1L17 0L15 0L15 1L14 1L14 2L15 2L15 4L13 4L13 6L12 6L12 5L11 5L11 6L10 6L10 5L9 5L9 4L12 4L12 3L13 3L13 0L12 0L12 1L11 1L11 2L9 2L9 1L10 1L10 0ZM24 1L24 2L25 2L25 1ZM16 3L16 4L17 4L17 3ZM20 3L20 4L21 4L21 3ZM25 3L25 4L26 4L26 3ZM14 5L14 6L13 6L13 7L14 7L14 8L15 8L15 9L16 9L16 10L14 10L14 11L15 11L15 12L13 12L13 8L12 8L12 6L11 6L11 7L10 7L10 6L9 6L9 7L10 7L10 8L8 8L8 9L9 9L9 11L8 11L8 12L7 12L7 11L6 11L6 12L7 12L7 13L6 13L6 14L10 14L10 15L9 15L9 17L8 17L8 16L7 16L7 15L6 15L6 16L3 16L3 17L2 17L2 18L3 18L3 17L5 17L5 18L9 18L9 17L10 17L10 18L11 18L11 19L10 19L10 20L9 20L9 21L8 21L8 22L7 22L7 21L6 21L6 20L7 20L7 19L5 19L5 21L6 21L6 22L7 22L7 23L6 23L6 24L5 24L5 23L4 23L4 22L1 22L1 23L2 23L2 26L1 26L1 27L2 27L2 28L3 28L3 27L5 27L5 25L6 25L6 26L7 26L7 27L8 27L8 26L9 26L9 28L8 28L8 29L9 29L9 28L11 28L11 30L10 30L10 31L11 31L11 30L12 30L12 28L13 28L13 29L14 29L14 30L16 30L16 29L17 29L17 30L18 30L18 29L19 29L19 28L20 28L20 27L21 27L21 23L19 23L19 22L21 22L21 21L22 21L22 19L23 19L23 20L24 20L24 19L23 19L23 18L25 18L25 17L24 17L24 15L23 15L23 14L22 14L22 16L20 16L20 13L22 13L22 12L21 12L21 10L20 10L20 11L19 11L19 9L18 9L18 11L17 11L17 7L18 7L18 8L19 8L19 7L20 7L20 6L19 6L19 7L18 7L18 6L17 6L17 5ZM14 6L14 7L15 7L15 6ZM16 6L16 7L17 7L17 6ZM26 6L26 7L27 7L27 6ZM28 6L28 7L29 7L29 6ZM10 8L10 11L11 11L11 10L12 10L12 9L11 9L11 8ZM22 8L22 9L23 9L23 8ZM34 8L34 9L36 9L36 8ZM6 9L6 10L7 10L7 9ZM35 10L35 11L36 11L36 10ZM16 11L16 13L15 13L15 14L14 14L14 16L13 16L13 12L12 12L12 13L11 13L11 12L10 12L10 13L11 13L11 14L12 14L12 16L11 16L11 15L10 15L10 16L11 16L11 17L12 17L12 16L13 16L13 20L12 20L12 19L11 19L11 22L10 22L10 21L9 21L9 23L11 23L11 26L10 26L10 25L9 25L9 24L8 24L8 25L7 25L7 24L6 24L6 25L7 25L7 26L8 26L8 25L9 25L9 26L10 26L10 27L11 27L11 28L12 28L12 24L13 24L13 25L14 25L14 26L13 26L13 27L14 27L14 29L15 29L15 27L14 27L14 26L15 26L15 24L13 24L13 22L14 22L14 23L15 23L15 22L16 22L16 21L17 21L17 23L18 23L18 24L17 24L17 26L16 26L16 28L18 28L18 27L17 27L17 26L18 26L18 24L19 24L19 23L18 23L18 22L19 22L19 20L21 20L21 19L22 19L22 17L23 17L23 16L22 16L22 17L21 17L21 18L19 18L19 20L18 20L18 18L17 18L17 20L16 20L16 21L15 21L15 22L14 22L14 20L15 20L15 18L16 18L16 17L15 17L15 15L16 15L16 16L17 16L17 17L20 17L20 16L19 16L19 15L17 15L17 14L18 14L18 13L17 13L17 11ZM18 11L18 12L19 12L19 11ZM4 12L4 14L5 14L5 12ZM8 12L8 13L9 13L9 12ZM23 12L23 13L25 13L25 14L26 14L26 13L25 13L25 12ZM2 13L2 14L3 14L3 13ZM16 13L16 14L17 14L17 13ZM30 13L30 14L29 14L29 15L30 15L30 14L31 14L31 13ZM25 15L25 16L26 16L26 18L27 18L27 20L26 20L26 21L28 21L28 22L26 22L26 24L27 24L27 23L29 23L29 24L30 24L30 23L29 23L29 22L30 22L30 21L28 21L28 20L29 20L29 19L28 19L28 15ZM6 16L6 17L7 17L7 16ZM29 16L29 17L30 17L30 16ZM14 17L14 18L15 18L15 17ZM3 19L3 20L4 20L4 19ZM1 20L1 21L2 21L2 20ZM24 21L24 22L23 22L23 23L24 23L24 24L23 24L23 25L22 25L22 29L25 29L25 28L24 28L24 26L23 26L23 25L25 25L25 27L26 27L26 25L25 25L25 23L24 23L24 22L25 22L25 21ZM35 22L35 23L36 23L36 22ZM3 23L3 24L4 24L4 23ZM2 26L2 27L3 27L3 26ZM27 26L27 28L26 28L26 30L25 30L25 31L24 31L24 30L22 30L22 32L21 32L21 31L20 31L20 32L21 32L21 33L23 33L23 32L24 32L24 34L25 34L25 32L26 32L26 34L28 34L28 30L27 30L27 29L28 29L28 26ZM32 26L32 27L33 27L33 26ZM29 29L29 32L32 32L32 29ZM30 30L30 31L31 31L31 30ZM35 30L35 33L36 33L36 32L37 32L37 30ZM17 32L17 35L16 35L16 33L15 33L15 35L14 35L14 36L15 36L15 35L16 35L16 37L17 37L17 36L18 36L18 32ZM19 34L19 35L20 35L20 34ZM8 35L8 37L9 37L9 35ZM12 36L12 37L13 37L13 36ZM31 36L31 37L33 37L33 36Z" fill="#000000"/></g></g></svg>
